<svg width="120" height="120" viewBox="0 0 120 120" fill="none" xmlns="http://www.w3.org/2000/svg">
<path d="M64.3461 31.0056C64.3463 31.0055 64.3466 31.0053 63.8503 30.1371C63.354 29.269 63.3543 29.2688 63.3546 29.2686L63.3569 29.2673L63.3612 29.2649L63.3739 29.2578L63.4152 29.2351C63.4498 29.2163 63.4983 29.1904 63.5598 29.1588C63.6828 29.0956 63.8584 29.0092 64.0796 28.9101C64.5209 28.7125 65.1487 28.4623 65.9058 28.2467C67.4079 27.8188 69.4895 27.5071 71.6471 28.0852C73.8046 28.6633 75.4515 29.9741 76.5384 31.0956C77.0862 31.6609 77.5049 32.1915 77.7882 32.5834C77.9302 32.7797 78.0391 32.9423 78.114 33.0586C78.1515 33.1167 78.1806 33.1634 78.2011 33.1969L78.2255 33.2373L78.233 33.2498L78.2355 33.254L78.2364 33.2556C78.2366 33.2559 78.2371 33.2569 77.3733 33.7606C76.5094 34.2643 76.5096 34.2646 76.5097 34.2648L76.5085 34.2628L76.4953 34.2411L76.4709 34.2017L76.4534 34.1741L76.4331 34.1423C76.3757 34.0532 76.2868 33.9202 76.1676 33.7554C75.9286 33.4249 75.5707 32.971 75.1022 32.4875C74.1563 31.5114 72.8106 30.4675 71.1294 30.017C69.4483 29.5666 67.7609 29.7978 66.4537 30.1701C65.8061 30.3546 65.2693 30.5688 64.897 30.7355C64.7114 30.8186 64.568 30.8894 64.4737 30.9378C64.4266 30.962 64.3919 30.9805 64.3704 30.9922L64.3482 31.0044L64.3461 31.0056Z" fill="#212121"/>
<path fill-rule="evenodd" clip-rule="evenodd" d="M51 45C52.6569 45 54 43.2091 54 41C54 38.7909 52.6569 37 51 37C49.3431 37 48 38.7909 48 41C48 43.2091 49.3431 45 51 45ZM51 41C50.4477 41 50 40.5523 50 40C50 39.4477 50.4477 39 51 39C51.5523 39 52 39.4477 52 40C52 40.5523 51.5523 41 51 41Z" fill="#212121"/>
<path fill-rule="evenodd" clip-rule="evenodd" d="M69 45C70.6569 45 72 43.2091 72 41C72 38.7909 70.6569 37 69 37C67.3431 37 66 38.7909 66 41C66 43.2091 67.3431 45 69 45ZM69 41C68.4477 41 68 40.5523 68 40C68 39.4477 68.4477 39 69 39C69.5523 39 70 39.4477 70 40C70 40.5523 69.5523 41 69 41Z" fill="#212121"/>
<path d="M48.8706 30.0171C50.5518 29.5666 52.2391 29.7978 53.5464 30.1702C54.1939 30.3546 54.7308 30.5688 55.103 30.7355C55.2887 30.8186 55.4321 30.8894 55.5263 30.9378C55.5734 30.962 55.6082 30.9806 55.6297 30.9923L55.6519 31.0045L55.654 31.0056C55.6537 31.0055 55.6535 31.0053 56.1497 30.1372C56.646 29.269 56.645 29.2684 56.6447 29.2683L56.6388 29.2649L56.6262 29.2578L56.5848 29.2351C56.5503 29.2163 56.5018 29.1904 56.4402 29.1588C56.3172 29.0956 56.1416 29.0092 55.9205 28.9102C55.4792 28.7125 54.8513 28.4623 54.0942 28.2467C52.5922 27.8188 50.5105 27.5071 48.353 28.0852C46.1954 28.6633 44.5486 29.9741 43.4617 31.0957C42.9138 31.661 42.4952 32.1916 42.2118 32.5834C42.0698 32.7797 41.961 32.9424 41.886 33.0586C41.8485 33.1168 41.8195 33.1634 41.7989 33.197L41.7745 33.2373L41.7671 33.2498L41.7646 33.254L41.7632 33.2563C41.7631 33.2566 41.7629 33.2569 42.6268 33.7606C43.4906 34.2643 43.4905 34.2646 43.4903 34.2649L43.4916 34.2628L43.5047 34.2411C43.5175 34.2203 43.5383 34.1868 43.567 34.1423C43.6244 34.0532 43.7132 33.9203 43.8324 33.7554C44.0714 33.425 44.4293 32.971 44.8979 32.4875C45.8438 31.5115 47.1894 30.4675 48.8706 30.0171Z" fill="#212121"/>
<path fill-rule="evenodd" clip-rule="evenodd" d="M52.3389 53H67.6612C68.3295 53 68.7805 53.6342 68.4621 54.2218C67.5112 55.9761 65.1285 59 60 59C54.8715 59 52.4888 55.9761 51.538 54.2218C51.2195 53.6342 51.6705 53 52.3389 53ZM66 54H54C54 54.5523 54.4477 55 55 55H65C65.5523 55 66 54.5523 66 54Z" fill="#212121"/>
<path fill-rule="evenodd" clip-rule="evenodd" d="M83.4158 64.8107C88.7416 59.0955 92 51.4283 92 43C92 25.3269 77.6731 11 60 11C42.3269 11 28 25.3269 28 43C28 51.4283 31.2584 59.0955 36.5842 64.8107C20.7698 73.2081 10 89.8463 10 109H14C14 90.8898 24.4656 75.224 39.6788 67.7206C39.6787 67.7205 39.6788 67.7206 39.6788 67.7206C45.2053 72.2689 52.2837 75 60 75C67.7163 75 74.7947 72.2689 80.3212 67.7206C95.5344 75.224 106 90.8898 106 109H110C110 89.8463 99.2301 73.2081 83.4158 64.8107ZM60 71C75.464 71 88 58.464 88 43C88 27.536 75.464 15 60 15C44.536 15 32 27.536 32 43C32 58.464 44.536 71 60 71Z" fill="#212121"/>
</svg>
