<svg width="120" height="120" viewBox="0 0 120 120" fill="none" xmlns="http://www.w3.org/2000/svg">
<path d="M42 37C42.7041 37.7101 42.7037 37.7106 42.7037 37.7106L42.7054 37.7089L42.7237 37.6914C42.7414 37.6745 42.7702 37.6476 42.8094 37.612C42.8879 37.5408 43.0081 37.4354 43.1659 37.307C43.4823 37.0497 43.9455 36.7038 44.5232 36.3581C45.6895 35.6601 47.2596 35 49 35C50.7405 35 52.3105 35.6601 53.4768 36.3581C54.0546 36.7038 54.5177 37.0497 54.8341 37.307C54.9919 37.4354 55.1121 37.5408 55.1907 37.612C55.2299 37.6476 55.2586 37.6745 55.2764 37.6914L55.2946 37.7089L55.2964 37.7106C55.2964 37.7106 55.296 37.7101 56 37C56.7041 36.2899 56.703 36.2888 56.703 36.2888L56.7017 36.2875L56.6982 36.284L56.6878 36.2739L56.6538 36.2413C56.6252 36.2142 56.5851 36.1766 56.5338 36.1302C56.4314 36.0373 56.2841 35.9084 56.0962 35.7555C55.721 35.4503 55.1793 35.0462 54.5038 34.6419C53.1637 33.8399 51.2337 33 49 33C46.7664 33 44.8364 33.8399 43.4962 34.6419C42.8207 35.0462 42.279 35.4503 41.9039 35.7555C41.7159 35.9084 41.5687 36.0373 41.4662 36.1302C41.4149 36.1766 41.3748 36.2142 41.3463 36.2413L41.3122 36.2739L41.3019 36.284L41.2983 36.2875L41.2964 36.2894C41.2964 36.2894 41.296 36.2899 42 37Z" fill="#212121"/>
<path d="M64.7036 37.7106C64.7036 37.7106 64.704 37.7101 64 37C63.2959 36.2899 63.2964 36.2894 63.2964 36.2894L63.2983 36.2875L63.3018 36.284L63.3122 36.2739L63.3462 36.2413C63.3747 36.2142 63.4149 36.1766 63.4662 36.1302C63.5686 36.0373 63.7159 35.9084 63.9038 35.7555C64.279 35.4503 64.8206 35.0462 65.4961 34.6419C66.8363 33.8399 68.7663 33 71 33C73.2336 33 75.1636 33.8399 76.5038 34.6419C77.1793 35.0462 77.721 35.4503 78.0961 35.7555C78.284 35.9084 78.4313 36.0373 78.5338 36.1302C78.585 36.1766 78.6252 36.2142 78.6537 36.2413L78.6877 36.2739L78.6981 36.284L78.7016 36.2875L78.703 36.2888C78.703 36.2888 78.704 36.2899 78 37C77.2959 37.7101 77.2963 37.7106 77.2963 37.7106L77.2946 37.7089L77.2763 37.6914C77.2586 37.6745 77.2298 37.6476 77.1906 37.612C77.1121 37.5408 76.9919 37.4354 76.8341 37.307C76.5177 37.0497 76.0545 36.7038 75.4767 36.3581C74.3104 35.6601 72.7404 35 71 35C69.2595 35 67.6895 35.6601 66.5232 36.3581C65.9454 36.7038 65.4823 37.0497 65.1659 37.307C65.008 37.4354 64.8879 37.5408 64.8093 37.612C64.7701 37.6476 64.7414 37.6745 64.7236 37.6914L64.7053 37.7089L64.7036 37.7106Z" fill="#212121"/>
<path fill-rule="evenodd" clip-rule="evenodd" d="M54 45.5C54 47.433 52.6569 49 51 49C49.3431 49 48 47.433 48 45.5C48 43.567 49.3431 42 51 42C52.6569 42 54 43.567 54 45.5ZM50 46C50 46.5523 50.4477 47 51 47C51.5523 47 52 46.5523 52 46C52 45.4477 51.5523 45 51 45C50.4477 45 50 45.4477 50 46Z" fill="#212121"/>
<path d="M60 62C61.6569 62 63 60.6569 63 59C63 57.3431 61.6569 56 60 56C58.3431 56 57 57.3431 57 59C57 60.6569 58.3431 62 60 62Z" fill="#212121"/>
<path fill-rule="evenodd" clip-rule="evenodd" d="M69 49C70.6569 49 72 47.433 72 45.5C72 43.567 70.6569 42 69 42C67.3431 42 66 43.567 66 45.5C66 47.433 67.3431 49 69 49ZM69 47C68.4477 47 68 46.5523 68 46C68 45.4477 68.4477 45 69 45C69.5523 45 70 45.4477 70 46C70 46.5523 69.5523 47 69 47Z" fill="#212121"/>
<path fill-rule="evenodd" clip-rule="evenodd" d="M83.4158 64.8107C88.7416 59.0955 92 51.4283 92 43C92 25.3269 77.6731 11 60 11C42.3269 11 28 25.3269 28 43C28 51.5604 31.3614 59.3357 36.8362 65.0781C36.7517 64.9894 36.6677 64.9003 36.5842 64.8107C20.7698 73.2081 10 89.8463 10 109H14C14 90.8898 24.4656 75.224 39.6788 67.7206C39.6787 67.7206 39.6788 67.7206 39.6788 67.7206C45.2053 72.2689 52.2837 75 60 75C67.732 75 74.8235 72.2577 80.355 67.6928C80.3437 67.702 80.3325 67.7113 80.3212 67.7206C95.5344 75.224 106 90.8898 106 109H110C110 89.8463 99.2301 73.2081 83.4158 64.8107ZM60 71C75.464 71 88 58.464 88 43C88 27.536 75.464 15 60 15C44.536 15 32 27.536 32 43C32 58.464 44.536 71 60 71Z" fill="#212121"/>
</svg>
